<svg width="31" height="31" viewBox="0 0 31 31" xmlns="http://www.w3.org/2000/svg" xmlns:sketch="http://www.bohemiancoding.com/sketch/ns"><title>Facebook</title><desc>Created with Sketch.</desc><path d="M25.834 0h-20.666c-2.841 0-5.167 2.325-5.167 5.167v20.665c0 2.844 2.325 5.167 5.167 5.167h20.666c2.842 0 5.166-2.323 5.166-5.167v-20.665c0-2.842-2.324-5.167-5.166-5.167zm.522 15.5h-5.043v13.563h-5.813v-13.563h-2.801v-4.437h2.801v-2.882c0-3.916 1.689-6.244 6.293-6.244h5.305v4.8h-4.333c-1.286-.002-1.445.67-1.445 1.923l-.007 2.403h5.813l-.769 4.437z" id="Facebook" fill="#fff" fill-rule="evenodd"/></svg>