<svg xmlns="http://www.w3.org/2000/svg" viewBox="0 0 148 148" enable-background="new 0 0 148 148"><title>Icon 1</title><desc>Created with Sketch.</desc><g id="Icon-1" transform="translate(1 1)"><path id="path-1_1_" fill="#3788FF" d="M75.8.8c-1.6-1.6-4.1-1.6-5.7 0l-69.3 69.4c-1.6 1.6-1.6 4.1 0 5.7l69.3 69.3c1.6 1.6 4.1 1.6 5.7 0l69.3-69.3c1.6-1.6 1.6-4.1 0-5.7l-69.3-69.4z"/><defs><filter id="Adobe_OpacityMaskFilter" filterUnits="userSpaceOnUse" x="46.6" y="15.4" width="53.2" height="102.7"><feColorMatrix values="1 0 0 0 0 0 1 0 0 0 0 0 1 0 0 0 0 0 1 0"/></filter></defs><mask maskUnits="userSpaceOnUse" x="46.6" y="15.4" width="53.2" height="102.7" id="mask-2"><path id="path-1" fill="#fff" d="M75.8.8c-1.6-1.6-4.1-1.6-5.7 0l-69.3 69.4c-1.6 1.6-1.6 4.1 0 5.7l69.3 69.3c1.6 1.6 4.1 1.6 5.7 0l69.3-69.3c1.6-1.6 1.6-4.1 0-5.7l-69.3-69.4z" filter="url(#Adobe_OpacityMaskFilter)"/></mask><path id="Shape" mask="url(#mask-2)" fill="#fff" d="M46.7 69.3c0 .7 26.5 48.8 26.5 48.8s26.6-48 26.6-48.8c0-4.8-.1-28.3-.1-28.3l-26.5-25.6-26.6 25.6s.1 23.5.1 28.3zm21.2 29.2l-11.3-21.5 7.7-3.3 9 4.9 8.8-5.1 7.6 3.2-10.8 21.5-11 .3z"/></g></svg>