<svg width="148" height="148" viewBox="0 0 148 148" xmlns="http://www.w3.org/2000/svg"><title>Icon 2</title><desc>Created with Sketch.</desc><g id="Icon-2" transform="translate(-1 -1)" fill="none" fill-rule="evenodd"><rect id="Rectangle-16" fill="#3788FF" transform="rotate(-315 75 75)" x="21.97" y="21.97" width="106.061" height="106.061" rx="4"/><path d="M75.672 82.543c3.795 0 6.872-3.076 6.872-6.872 0-3.795-3.076-6.872-6.872-6.872-3.795 0-6.872 3.076-6.872 6.872 0 3.795 3.076 6.872 6.872 6.872zm-25.116-40.543l7.832 7.834 4.129-4.129 1.845 10.25 1.847 10.252-10.254-1.846-10.248-1.844 4.128-4.129-7.834-7.833 8.555-8.556zm49.887 67l-7.834-7.832-4.128 4.127-1.843-10.251-1.848-10.25 10.254 1.846 10.249 1.845-4.129 4.126 7.835 7.836-8.557 8.555zm-58.442-8.555l7.834-7.836-4.128-4.126 10.248-1.845 10.252-1.846-1.845 10.25-1.845 10.251-4.129-4.127-7.832 7.83-8.555-8.553zm66.999-49.89l-7.832 7.833 4.129 4.129-10.252 1.845-10.25 1.845 1.845-10.252 1.843-10.25 4.129 4.129 7.833-7.835 8.555 8.556z" id="Shape" fill="#fff"/></g></svg>