<svg width="148" height="148" viewBox="0 0 148 148" xmlns="http://www.w3.org/2000/svg"><title>Icon 3</title><desc>Created with Sketch.</desc><g id="Icon-3" transform="translate(-1 -1)" fill="none" fill-rule="evenodd"><rect id="Rectangle-16" fill="#3788FF" transform="rotate(-315 75 75)" x="21.97" y="21.97" width="106.061" height="106.061" rx="4"/><path d="M69.663 81.495c1.708-.544 3.527-.84 5.413-.84 1.923 0 3.773.314 5.512.875l-.05-25.84h9.362l-14.044-15.604-15.604 15.604h9.363l.048 25.804zm23.139-24.245l6.695 6.544-17.7 18.181c3.482 1.412 6.414 3.888 8.411 7.022l17.102-17.569 6.696 6.544.86-20.722h-22.065zm-24.448 24.725l-17.7-18.181 6.696-6.544h-22.065l.861 20.722 6.696-6.544 17.102 17.569c1.996-3.135 4.928-5.61 8.409-7.022zm6.412 29.114c6.861 0 12.423-5.562 12.423-12.423s-5.562-12.423-12.423-12.423-12.423 5.562-12.423 12.423 5.562 12.423 12.423 12.423z" id="Shape" fill="#fff"/></g></svg>