<svg width="31" height="31" viewBox="0 0 31 31" xmlns="http://www.w3.org/2000/svg" xmlns:sketch="http://www.bohemiancoding.com/sketch/ns"><title>Instagram</title><desc>Created with Sketch.</desc><path d="M25.854 0h-20.707c-2.831 0-5.147 2.316-5.147 5.147v20.707c0 2.831 2.316 5.147 5.147 5.147h20.707c2.831 0 5.147-2.316 5.147-5.147v-20.707c0-2.831-2.316-5.147-5.147-5.147zm-15.93 13.563h11.153c.211.607.326 1.259.326 1.938 0 3.255-2.649 5.904-5.904 5.904s-5.904-2.649-5.904-5.904c0-.678.115-1.33.327-1.938zm17.201.002v11.623c0 1.066-.872 1.938-1.938 1.938h-19.375c-1.066 0-1.938-.872-1.938-1.938v-11.625h3.03c-.14.624-.215 1.272-.215 1.938 0 4.857 3.952 8.81 8.81 8.81 4.858 0 8.81-3.952 8.81-8.81 0-.666-.075-1.314-.215-1.938l3.03.002zm0-6.783c0 .533-.436.969-.969.969h-1.938c-.533 0-.969-.436-.969-.969v-1.938c0-.533.436-.969.969-.969h1.938c.533 0 .969.436.969.969v1.938z" id="Instagram" fill="#fff" fill-rule="evenodd"/></svg>