<svg xmlns:sketch="http://www.bohemiancoding.com/sketch/ns" xmlns="http://www.w3.org/2000/svg" viewBox="0 0 117 50" enable-background="new 0 0 117 50"><title>Logo</title><desc>Created with Sketch.</desc><g id="Logo"><path id="Fill-12" d="M111.1 21.6v-10.4c.3-.2.5-.4.8-.6.6-.4 1.4-.9 1.8-1.1.6-.2 2.1-.4 3.1-.6v-2.1c-.5.1-2.9.3-3.8.7-.7.2-1.5.8-2.3 1.3-.3.2-.5.3-.7.5-.3-.2-.6-.4-.9-.6-.7-.5-1.4-1-2-1.2-.9-.3-3.4-.6-3.8-.7v2.2c1.1.1 2.6.4 3.1.6.3.1.9.6 1.4.9.4.3.8.6 1.2.8v10.3h-2v2.2h1.9v10.3c-.4.2-.8.5-1.2.8-.5.4-1.1.8-1.4.9-.5.2-2 .4-3.1.6v2.2c.5-.1 2.9-.4 3.8-.7.6-.2 1.3-.7 2-1.2.3-.2.6-.4.9-.6.2.2.5.3.7.5.8.5 1.6 1.1 2.3 1.3 1 .3 3.4.6 3.8.7v-2.2c-1-.1-2.5-.4-3.1-.6-.4-.1-1.2-.7-1.8-1.1-.3-.2-.6-.4-.8-.6v-10.2h1.9v-2.2l-1.8-.1z"/><path id="Fill-1" fill="#3788FF" d="M64.1 30.6c1.7 0 2.9 1.3 2.9 2.9 0 1.6-1.2 2.8-2.9 2.9v13.1h33.8v-49.4h-33.8s0 30.5 0 30.5zm8 1.6c0 1.4.8 2.3 2.1 2.3.8 0 1.5-.2 2.1-.6v1.8c-.5.3-1.2.6-2.4.6-2.2 0-3.7-1.5-3.7-3.7v-23.3h2c-.1 0-.1 22.9-.1 22.9zm20.7 4c0 5.5-3.3 8.8-7.9 8.8-2.6 0-4.3-.6-5.9-1.6v-2.1c1.6 1.2 3.2 1.9 5.9 1.9 3.4 0 5.9-2.4 5.9-7v-2.9c-.9 1.6-2.9 3-5.9 3-4 0-6.8-2.7-6.8-7v-11h2v10.7c0 3.5 2.1 5.5 5.2 5.5 3.2 0 5.5-2.6 5.5-5.5v-10.8h2v18z"/><path id="Fill-6" d="M43.8 29.5c0 2.2 1.2 3.2 2.7 3.2 1.2 0 2-.3 3-1v3.5c-1.2.7-2.2 1-3.7 1-3.3 0-6-2.1-5.9-6.4v-8.6h-4.1v-3.4h4.1v-6.5h4v6.5h5.6v3.4h-5.6l-.1 8.3"/><path id="Fill-7" d="M55.6 29.5c0 2.2 1.2 3.2 2.7 3.2 1.2 0 2-.3 3-1 0 0-.4.7-.4 1.8s.4 1.7.4 1.7c-1.2.7-2.2 1-3.7 1-3.3 0-6-2.1-5.9-6.4v-8.6h-4.1v-3.4h4.1v-6.5h4v6.5h4.3v3.4h-4.3l-.1 8.3"/><path id="Fill-5" d="M35.7 26.8c0 5.7-4.1 9.4-9.4 9.4-5.4 0-9.5-3.7-9.5-9.4s4.1-9.4 9.5-9.4c5.3 0 9.4 3.7 9.4 9.4zm-14.8 0c0 3.7 2.3 5.9 5.4 5.9 3.1 0 5.4-2.2 5.4-5.9 0-3.8-2.3-5.9-5.4-5.9-3.2 0-5.4 2.2-5.4 5.9z"/><path id="Fill-4" d="M14.6 27.4c0 5.5-3.3 8.8-8.8 8.8-2.4 0-4-.5-5.7-1.2v-4.1c1.5.9 3.4 1.6 5.8 1.6 2.9 0 4.5-1.8 4.5-5v-14.6c-1.4 0-2.5.2-3.5.5 0 .3.1.6.1.9 0 1.6-1.2 2.9-3 2.9-1.7 0-3-1.2-3-3 0-1.2.5-2.3 2.1-3.3 2.8-1.4 6.7-1.8 11.5-1.6v18.1z"/></g></svg>