<?xml version="1.0" encoding="UTF-8" standalone="no"?>
<svg width="61px" height="40px" viewBox="0 0 61 40" version="1.1" xmlns="http://www.w3.org/2000/svg" xmlns:xlink="http://www.w3.org/1999/xlink" xmlns:sketch="http://www.bohemiancoding.com/sketch/ns">
    <!-- Generator: Sketch 3.0.4 (8053) - http://www.bohemiancoding.com/sketch -->
    <title>marker4</title>
    <desc>Created with Sketch.</desc>
    <defs></defs>
    <g id="Page-1" stroke="none" stroke-width="1" fill="none" fill-rule="evenodd">
        <g id="marker4">
            <g id="4">
                <path d="M61,20.074 L32,20.074" id="Line" stroke="#3788FF" stroke-width="4"></path>
                <path d="M22.121,0.908 C20.949,-0.264 19.047,-0.261 17.878,0.908 L0.907,17.879 C-0.265,19.051 -0.262,20.953 0.907,22.122 L17.878,39.093 C19.05,40.265 20.952,40.262 22.121,39.093 L39.092,22.122 C40.264,20.95 40.261,19.048 39.092,17.879 L22.121,0.908 L22.121,0.908 Z" id="Rectangle-20" fill="#3788FF"></path>
                <path d="M21.841,25.368 C21.841,25.698 21.837,26.005 21.829,26.288 C21.821,26.571 21.794,26.835 21.746,27.079 L23.61,27.008 L23.61,27.999 L17.521,27.999 L17.521,27.197 L17.71,27.197 C18.119,27.166 18.449,27.073 18.701,26.92 C18.953,26.767 19.149,26.558 19.291,26.295 C19.433,26.031 19.527,25.719 19.574,25.357 C19.621,24.995 19.645,24.594 19.645,24.153 L19.645,23.339 L12.294,23.339 L12.294,22.147 L21.026,10.689 L21.84,10.689 L21.84,21.887 L24.283,21.911 L24.283,23.339 L21.84,23.339 L21.84,25.369 L21.841,25.368 Z" id="Rectangle-20-path" fill="#FFFFFF"></path>
                <path d="M13.888,21.769 L19.646,21.84 L19.646,14.135 L19.599,14.135 L13.888,21.77 L13.888,21.769 Z" id="Rectangle-20-path" fill="#3788FF"></path>
            </g>
        </g>
    </g>
</svg>