<?xml version="1.0" encoding="UTF-8" standalone="no"?>
<svg width="62px" height="40px" viewBox="0 0 62 40" version="1.1" xmlns="http://www.w3.org/2000/svg" xmlns:xlink="http://www.w3.org/1999/xlink" xmlns:sketch="http://www.bohemiancoding.com/sketch/ns">
    <!-- Generator: Sketch 3.0.4 (8053) - http://www.bohemiancoding.com/sketch -->
    <title>marker3</title>
    <desc>Created with Sketch.</desc>
    <defs></defs>
    <g id="Page-1" stroke="none" stroke-width="1" fill="none" fill-rule="evenodd">
        <g id="marker3" transform="translate(1.000000, 0.000000)">
            <g id="3">
                <path d="M-0.115,19.98 L25.0430357,19.98" id="Line-2" stroke="#3788FF" stroke-width="4"></path>
                <path d="M43.121,0.908 C41.949,-0.264 40.047,-0.261 38.878,0.908 L21.907,17.879 C20.735,19.051 20.738,20.953 21.907,22.122 L38.878,39.093 C40.05,40.265 41.952,40.262 43.121,39.093 L60.092,22.122 C61.264,20.95 61.261,19.048 60.092,17.879 L43.121,0.908 L43.121,0.908 Z" id="Rectangle-21" fill="#3788FF"></path>
                <path d="M37.245,13.38 C37.387,13.537 37.487,13.701 37.546,13.87 C37.605,14.039 37.635,14.206 37.635,14.372 C37.635,14.466 37.615,14.577 37.576,14.702 C37.537,14.828 37.474,14.944 37.387,15.05 C37.3,15.156 37.186,15.247 37.045,15.321 C36.903,15.396 36.73,15.429 36.526,15.421 C36.18,15.405 35.918,15.277 35.741,15.037 C35.564,14.797 35.475,14.508 35.475,14.17 C35.475,13.84 35.575,13.472 35.776,13.067 C35.977,12.662 36.281,12.282 36.691,11.928 C37.1,11.574 37.613,11.279 38.231,11.043 C38.849,10.807 39.574,10.689 40.408,10.689 C41.053,10.689 41.669,10.766 42.255,10.919 C42.841,11.072 43.358,11.316 43.807,11.651 C44.255,11.985 44.613,12.418 44.881,12.949 C45.148,13.48 45.282,14.127 45.282,14.89 C45.282,15.275 45.215,15.659 45.081,16.041 C44.947,16.423 44.727,16.79 44.42,17.144 C44.113,17.498 43.706,17.826 43.199,18.129 C42.692,18.432 42.068,18.697 41.329,18.926 L41.329,18.95 C42.092,19.029 42.778,19.194 43.388,19.446 C43.998,19.698 44.515,20.022 44.94,20.42 C45.365,20.817 45.691,21.279 45.919,21.807 C46.147,22.334 46.261,22.908 46.261,23.53 C46.261,24.348 46.092,25.062 45.754,25.672 C45.416,26.282 44.965,26.787 44.403,27.188 C43.841,27.589 43.192,27.89 42.456,28.091 C41.72,28.292 40.959,28.392 40.173,28.392 C39.3,28.392 38.543,28.288 37.901,28.079 C37.26,27.871 36.729,27.605 36.308,27.282 C35.887,26.959 35.574,26.603 35.37,26.214 C35.165,25.825 35.063,25.453 35.063,25.099 C35.063,24.737 35.157,24.428 35.346,24.173 C35.535,23.917 35.81,23.782 36.172,23.766 C36.392,23.758 36.575,23.79 36.721,23.86 C36.867,23.931 36.983,24.021 37.069,24.131 C37.156,24.241 37.217,24.363 37.252,24.497 C37.287,24.631 37.305,24.753 37.305,24.863 C37.305,25.028 37.279,25.191 37.228,25.353 C37.177,25.514 37.116,25.674 37.045,25.831 C37.124,26.106 37.259,26.34 37.452,26.533 C37.645,26.726 37.875,26.883 38.142,27.005 C38.409,27.127 38.701,27.217 39.015,27.276 C39.33,27.335 39.652,27.365 39.983,27.365 C40.557,27.365 41.078,27.286 41.547,27.129 C42.015,26.972 42.414,26.738 42.745,26.427 C43.075,26.116 43.329,25.733 43.506,25.276 C43.683,24.82 43.772,24.293 43.772,23.695 C43.772,23.168 43.715,22.653 43.601,22.149 C43.487,21.646 43.271,21.201 42.952,20.816 C42.633,20.431 42.195,20.124 41.636,19.896 C41.077,19.668 40.358,19.562 39.477,19.577 C39.21,19.577 38.918,19.589 38.604,19.612 L38.604,18.526 L39.595,18.526 C40.232,18.526 40.763,18.41 41.188,18.178 C41.613,17.946 41.955,17.657 42.215,17.311 C42.475,16.965 42.659,16.593 42.77,16.196 C42.88,15.799 42.935,15.435 42.935,15.104 C42.935,14.608 42.89,14.148 42.799,13.723 C42.709,13.298 42.553,12.932 42.333,12.626 C42.113,12.319 41.82,12.077 41.454,11.9 C41.088,11.723 40.63,11.634 40.079,11.634 C39.717,11.634 39.377,11.687 39.058,11.793 C38.739,11.899 38.456,12.037 38.208,12.206 C37.96,12.375 37.754,12.564 37.588,12.772 C37.423,12.98 37.309,13.183 37.246,13.38 L37.245,13.38 Z" id="Rectangle-21-path" fill="#FFFFFF"></path>
            </g>
        </g>
    </g>
</svg>