<?xml version="1.0" encoding="UTF-8" standalone="no"?>
<svg width="40px" height="61px" viewBox="0 0 40 61" version="1.1" xmlns="http://www.w3.org/2000/svg" xmlns:xlink="http://www.w3.org/1999/xlink" xmlns:sketch="http://www.bohemiancoding.com/sketch/ns">
    <!-- Generator: Sketch 3.0.4 (8053) - http://www.bohemiancoding.com/sketch -->
    <title>marker2</title>
    <desc>Created with Sketch.</desc>
    <defs></defs>
    <g id="Page-1" stroke="none" stroke-width="1" fill="none" fill-rule="evenodd">
        <g id="marker2">
            <g id="Page-1">
                <g id="marker2">
                    <g id="2">
                        <path d="M20,28 L20,-4.47034409e-10" id="Line-2" stroke="#3788FF" stroke-width="4"></path>
                        <path d="M22.121,21.908 C20.949,20.736 19.047,20.739 17.878,21.908 L0.907,38.879 C-0.265,40.051 -0.262,41.953 0.907,43.122 L17.878,60.093 C19.05,61.265 20.952,61.262 22.121,60.093 L39.092,43.122 C40.264,41.95 40.261,40.048 39.092,38.879 L22.121,21.908 L22.121,21.908 Z" id="Rectangle-21" fill="#3788FF"></path>
                        <path d="M17.068,34.344 C17.225,34.517 17.337,34.696 17.404,34.881 C17.471,35.066 17.504,35.249 17.504,35.43 C17.504,35.532 17.484,35.65 17.445,35.784 C17.406,35.918 17.339,36.042 17.244,36.156 C17.15,36.27 17.028,36.366 16.878,36.445 C16.729,36.524 16.544,36.559 16.323,36.551 C15.961,36.535 15.686,36.4 15.497,36.144 C15.308,35.888 15.214,35.58 15.214,35.218 C15.214,34.88 15.32,34.504 15.533,34.091 C15.745,33.678 16.064,33.294 16.489,32.94 C16.914,32.586 17.441,32.289 18.07,32.049 C18.699,31.809 19.431,31.689 20.265,31.689 C20.902,31.689 21.526,31.764 22.135,31.913 C22.745,32.062 23.287,32.308 23.763,32.651 C24.239,32.993 24.62,33.446 24.908,34.008 C25.195,34.57 25.339,35.261 25.339,36.079 C25.339,36.488 25.252,36.925 25.079,37.389 C24.906,37.853 24.631,38.353 24.253,38.888 C23.875,39.423 23.386,39.995 22.784,40.605 C22.182,41.215 21.453,41.874 20.595,42.582 C20.044,43.03 19.541,43.471 19.085,43.904 C18.629,44.337 18.231,44.748 17.893,45.137 C17.555,45.526 17.281,45.892 17.073,46.234 C16.865,46.576 16.733,46.889 16.678,47.172 L20.961,47.29 C21.551,47.306 22.092,47.316 22.584,47.32 C23.076,47.324 23.5,47.279 23.858,47.184 C24.216,47.09 24.495,46.922 24.696,46.682 C24.897,46.442 24.997,46.086 24.997,45.614 L25.729,45.614 L25.576,49.001 L15.109,49.001 C15.109,48.151 15.245,47.396 15.516,46.735 C15.787,46.074 16.145,45.463 16.59,44.9 C17.034,44.338 17.542,43.797 18.112,43.277 C18.682,42.758 19.27,42.211 19.876,41.637 C20.922,40.638 21.679,39.71 22.148,38.852 C22.616,37.995 22.85,37.169 22.85,36.374 C22.85,35.926 22.805,35.479 22.714,35.035 C22.624,34.591 22.464,34.189 22.236,33.831 C22.008,33.473 21.703,33.184 21.321,32.964 C20.939,32.744 20.458,32.634 19.875,32.634 C19.545,32.634 19.228,32.679 18.925,32.77 C18.622,32.86 18.347,32.982 18.099,33.136 C17.851,33.289 17.639,33.47 17.462,33.679 C17.285,33.887 17.153,34.11 17.067,34.346 L17.068,34.344 L17.068,34.344 Z" id="Rectangle-21-path" fill="#FFFFFF"></path>
                    </g>
                </g>
            </g>
        </g>
    </g>
</svg>