<svg width="31" height="31" viewBox="0 0 31 31" xmlns="http://www.w3.org/2000/svg" xmlns:sketch="http://www.bohemiancoding.com/sketch/ns"><title>Twitter</title><desc>Created with Sketch.</desc><path d="M25.834 0h-20.666c-2.842 0-5.167 2.325-5.167 5.167v20.665c0 2.844 2.325 5.167 5.167 5.167h20.666c2.842 0 5.166-2.323 5.166-5.167v-20.665c0-2.842-2.324-5.167-5.166-5.167zm-.463 10.348c.01.222.015.446.015.67 0 6.848-5.123 14.745-14.491 14.745-2.876 0-5.553-.858-7.807-2.329.398.048.804.073 1.215.073 2.386 0 4.582-.828 6.325-2.218-2.228-.042-4.109-1.54-4.758-3.599.311.061.63.093.958.093.464 0 .915-.064 1.342-.182-2.33-.477-4.085-2.571-4.085-5.081v-.065c.687.388 1.472.621 2.307.648-1.367-.929-2.266-2.516-2.266-4.314 0-.949.251-1.84.69-2.605 2.512 3.136 6.265 5.198 10.497 5.414-.087-.38-.132-.775-.132-1.181 0-2.862 2.28-5.182 5.093-5.182 1.465 0 2.789.63 3.718 1.636 1.161-.233 2.25-.664 3.234-1.257-.381 1.21-1.188 2.226-2.239 2.868 1.03-.125 2.012-.404 2.925-.816-.683 1.039-1.546 1.952-2.541 2.682l.001-.001z" id="Twitter" fill="#fff" fill-rule="evenodd"/></svg>