<svg width="40" height="61" viewBox="0 0 40 61" xmlns="http://www.w3.org/2000/svg" xmlns:sketch="http://www.bohemiancoding.com/sketch/ns"><title>2</title><desc>Created with Sketch.</desc><g id="2" sketch:type="MSShapeGroup" fill="none" fill-rule="evenodd"><path d="M20 28v-25.02" id="Line-2" stroke="#3788FF" stroke-width="4" stroke-linecap="square"/><path d="M22.121 21.908c-1.172-1.172-3.074-1.169-4.243 0l-16.971 16.971c-1.172 1.172-1.169 3.074 0 4.243l16.971 16.971c1.172 1.172 3.074 1.169 4.243 0l16.971-16.971c1.172-1.172 1.169-3.074 0-4.243l-16.971-16.971zm-5.053 12.436c.157.173.269.352.336.537.067.185.1.368.1.549 0 .102-.02.22-.059.354-.039.134-.106.258-.201.372-.094.114-.216.21-.366.289-.149.079-.334.114-.555.106-.362-.016-.637-.151-.826-.407-.189-.256-.283-.564-.283-.926 0-.338.106-.714.319-1.127.212-.413.531-.797.956-1.151.425-.354.952-.651 1.581-.891s1.361-.36 2.195-.36c.637 0 1.261.075 1.87.224.61.149 1.152.395 1.628.738.476.342.857.795 1.145 1.357.287.562.431 1.253.431 2.071 0 .409-.087.846-.26 1.31-.173.464-.448.964-.826 1.499-.378.535-.867 1.107-1.469 1.717-.602.61-1.331 1.269-2.189 1.977-.551.448-1.054.889-1.51 1.322-.456.433-.854.844-1.192 1.233-.338.389-.612.755-.82 1.097-.208.342-.34.655-.395.938l4.283.118c.59.016 1.131.026 1.623.03s.916-.041 1.274-.136c.358-.094.637-.262.838-.502.201-.24.301-.596.301-1.068h.732l-.153 3.387h-10.467c0-.85.136-1.605.407-2.266.271-.661.629-1.272 1.074-1.835.444-.562.952-1.103 1.522-1.623.57-.519 1.158-1.066 1.764-1.64 1.046-.999 1.803-1.927 2.272-2.785.468-.857.702-1.683.702-2.478 0-.448-.045-.895-.136-1.339-.09-.444-.25-.846-.478-1.204-.228-.358-.533-.647-.915-.867-.382-.22-.863-.33-1.446-.33-.33 0-.647.045-.95.136-.303.09-.578.212-.826.366-.248.153-.46.334-.637.543-.177.208-.309.431-.395.667z" id="Rectangle-21" fill="#3788FF"/></g></svg>