<svg width="67" height="40" viewBox="0 0 67 40" xmlns="http://www.w3.org/2000/svg" xmlns:sketch="http://www.bohemiancoding.com/sketch/ns"><title>3</title><desc>Created with Sketch.</desc><g id="3" sketch:type="MSShapeGroup" fill="none" fill-rule="evenodd"><path d="M2.885 19.98h28.177" id="Line-2" stroke="#3788FF" stroke-width="4" stroke-linecap="square"/><path d="M49.121.908c-1.172-1.172-3.074-1.169-4.243 0l-16.971 16.971c-1.172 1.172-1.169 3.074 0 4.243l16.971 16.971c1.172 1.172 3.074 1.169 4.243 0l16.971-16.971c1.172-1.172 1.169-3.074 0-4.243l-16.971-16.971zm-5.876 12.472c.142.157.242.321.301.49.059.169.089.336.089.502 0 .094-.02.205-.059.33-.039.126-.102.242-.189.348-.087.106-.201.197-.342.271-.142.075-.315.108-.519.1-.346-.016-.608-.144-.785-.384-.177-.24-.266-.529-.266-.867 0-.33.1-.698.301-1.103.201-.405.505-.785.915-1.139.409-.354.922-.649 1.54-.885s1.343-.354 2.177-.354c.645 0 1.261.077 1.847.23.586.153 1.103.397 1.552.732.448.334.806.767 1.074 1.298.267.531.401 1.178.401 1.941 0 .385-.067.769-.201 1.151s-.354.749-.661 1.103c-.307.354-.714.682-1.221.985-.507.303-1.131.568-1.87.797v.024c.763.079 1.449.244 2.059.496.61.252 1.127.576 1.552.974.425.397.751.859.979 1.387.228.527.342 1.101.342 1.723 0 .818-.169 1.532-.507 2.142-.338.61-.789 1.115-1.351 1.516-.562.401-1.211.702-1.947.903-.736.201-1.497.301-2.283.301-.873 0-1.63-.104-2.272-.313-.641-.208-1.172-.474-1.593-.797-.421-.323-.734-.679-.938-1.068-.205-.389-.307-.761-.307-1.115 0-.362.094-.671.283-.926.189-.256.464-.391.826-.407.22-.008.403.024.549.094.146.071.262.161.348.271.087.11.148.232.183.366.035.134.053.256.053.366 0 .165-.026.328-.077.49-.051.161-.112.321-.183.478.079.275.214.509.407.702.193.193.423.35.69.472.267.122.559.212.873.271.315.059.637.089.968.089.574 0 1.095-.079 1.564-.236.468-.157.867-.391 1.198-.702.33-.311.584-.694.761-1.151.177-.456.266-.983.266-1.581 0-.527-.057-1.042-.171-1.546-.114-.503-.33-.948-.649-1.333s-.757-.692-1.316-.92c-.559-.228-1.278-.334-2.159-.319-.267 0-.559.012-.873.035v-1.086h.991c.637 0 1.168-.116 1.593-.348.425-.232.767-.521 1.027-.867.26-.346.444-.718.555-1.115.11-.397.165-.761.165-1.092 0-.496-.045-.956-.136-1.381-.09-.425-.246-.791-.466-1.097-.22-.307-.513-.549-.879-.726-.366-.177-.824-.266-1.375-.266-.362 0-.702.053-1.021.159-.319.106-.602.244-.85.413-.248.169-.454.358-.62.566-.165.208-.279.411-.342.608z" id="Rectangle-21" fill="#3788FF"/></g></svg>