<svg width="69" height="40" viewBox="0 0 69 40" xmlns="http://www.w3.org/2000/svg" xmlns:sketch="http://www.bohemiancoding.com/sketch/ns"><title>1</title><desc>Created with Sketch.</desc><g id="1" sketch:type="MSShapeGroup" fill="none" fill-rule="evenodd"><path d="M28 20h38.118" id="Line" stroke="#3788FF" stroke-width="4" stroke-linecap="square"/><path d="M22.121.908c-1.172-1.172-3.074-1.169-4.243 0l-16.971 16.971c-1.172 1.172-1.169 3.074 0 4.243l16.971 16.971c1.172 1.172 3.074 1.169 4.243 0l16.971-16.971c1.172-1.172 1.169-3.074 0-4.243l-16.971-16.971zm-1.127 24.46c0 .315-.002.614-.006.897-.004.283-.026.539-.065.767l2.03-.094v1.062h-6.16v-.802c.417-.016.761-.09 1.033-.224.271-.134.486-.319.643-.555.157-.236.267-.519.33-.85.063-.33.094-.704.094-1.121l-.024-11.411h-.047l-2.903 1.876-.484-.708 4.72-3.516h.814l.024 14.679z" id="Rectangle-20" fill="#3788FF"/></g></svg>