<svg width="68" height="40" viewBox="0 0 68 40" xmlns="http://www.w3.org/2000/svg" xmlns:sketch="http://www.bohemiancoding.com/sketch/ns"><title>4</title><desc>Created with Sketch.</desc><g id="4" sketch:type="MSShapeGroup" fill="none" fill-rule="evenodd"><path d="M66 20.074h-29" id="Line" stroke="#3788FF" stroke-width="4" stroke-linecap="square"/><path d="M22.121.908c-1.172-1.172-3.074-1.169-4.243 0l-16.971 16.971c-1.172 1.172-1.169 3.074 0 4.243l16.971 16.971c1.172 1.172 3.074 1.169 4.243 0l16.971-16.971c1.172-1.172 1.169-3.074 0-4.243l-16.971-16.971zm1.72 24.46c0 .33-.004.637-.012.92-.008.283-.035.547-.083.791l1.864-.071v.991h-6.089v-.802h.189c.409-.031.739-.124.991-.277.252-.153.448-.362.59-.625.142-.264.236-.576.283-.938.047-.362.071-.763.071-1.204v-.814h-7.351v-1.192l8.732-11.458h.814v11.198l2.443.024v1.428h-2.443v2.03zm-7.953-3.599l5.758.071v-7.705h-.047l-5.711 7.635z" id="Rectangle-20" fill="#3788FF"/></g></svg>