<svg width="29" height="22" viewBox="0 0 29 22" xmlns="http://www.w3.org/2000/svg" xmlns:sketch="http://www.bohemiancoding.com/sketch/ns"><title>“</title><desc>Created with Sketch.</desc><path d="M27.367 2.422c-.957.629-1.846 1.244-2.666 1.846-.82.602-1.531 1.23-2.133 1.887-.602.656-1.073 1.367-1.415 2.133-.342.766-.513 1.641-.513 2.625 0 .301.027.595.082.882.055.287.123.595.205.923.164-.137.479-.287.943-.451.465-.164.971-.246 1.518-.246 1.176 0 2.071.396 2.687 1.189.615.793.923 1.75.923 2.871 0 .629-.123 1.217-.369 1.764-.246.547-.588 1.025-1.025 1.436-.438.41-.937.731-1.497.964-.561.232-1.169.349-1.825.349-1.121 0-2.092-.219-2.912-.656-.82-.438-1.497-.991-2.03-1.661-.533-.67-.93-1.415-1.189-2.235-.26-.82-.39-1.613-.39-2.379 0-1.887.26-3.527.779-4.922.52-1.395 1.23-2.625 2.133-3.691.902-1.066 1.941-1.996 3.117-2.789 1.176-.793 2.42-1.545 3.732-2.256l1.846 2.42zm-15.258 0c-.957.629-1.846 1.244-2.666 1.846-.82.602-1.531 1.23-2.133 1.887-.602.656-1.073 1.367-1.415 2.133-.342.766-.513 1.641-.513 2.625 0 .301.027.595.082.882.055.287.123.595.205.923.164-.137.479-.287.943-.451.465-.164.971-.246 1.518-.246 1.176 0 2.071.396 2.687 1.189.615.793.923 1.75.923 2.871 0 .629-.123 1.217-.369 1.764-.246.547-.588 1.025-1.025 1.436-.438.41-.937.731-1.497.964-.561.232-1.169.349-1.825.349-1.121 0-2.092-.219-2.912-.656-.82-.438-1.497-.991-2.03-1.661-.533-.67-.93-1.415-1.189-2.235-.26-.82-.39-1.613-.39-2.379 0-1.887.26-3.527.779-4.922.52-1.395 1.23-2.625 2.133-3.691.902-1.066 1.941-1.996 3.117-2.789 1.176-.793 2.42-1.545 3.732-2.256l1.846 2.42z" id="“" sketch:type="MSShapeGroup" fill="#fff" opacity=".448" fill-rule="evenodd"/></svg>