<svg xmlns="http://www.w3.org/2000/svg"><defs><filter id="svgstoreafeb85c3283721af546859d62a1868a0Adobe_OpacityMaskFilter" filterUnits="userSpaceOnUse" x="46.6" y="15.4" width="53.2" height="102.7"/></defs><symbol viewBox="0 0 148 148" id="feature1"><title>Icon 1</title><desc>Created with Sketch.</desc><g id="svgstoreafeb85c3283721af546859d62a1868a0Icon-1" transform="translate(1 1)"><path id="svgstoreafeb85c3283721af546859d62a1868a0path-1_1_" fill="#3788FF" d="M75.8.8c-1.6-1.6-4.1-1.6-5.7 0l-69.3 69.4c-1.6 1.6-1.6 4.1 0 5.7l69.3 69.3c1.6 1.6 4.1 1.6 5.7 0l69.3-69.3c1.6-1.6 1.6-4.1 0-5.7l-69.3-69.4z"/><mask maskUnits="userSpaceOnUse" x="46.6" y="15.4" width="53.2" height="102.7" id="svgstoreafeb85c3283721af546859d62a1868a0mask-2"><path id="svgstoreafeb85c3283721af546859d62a1868a0path-1" fill="#fff" d="M75.8.8c-1.6-1.6-4.1-1.6-5.7 0l-69.3 69.4c-1.6 1.6-1.6 4.1 0 5.7l69.3 69.3c1.6 1.6 4.1 1.6 5.7 0l69.3-69.3c1.6-1.6 1.6-4.1 0-5.7l-69.3-69.4z" filter="url(#svgstoreafeb85c3283721af546859d62a1868a0Adobe_OpacityMaskFilter)"/></mask><path id="svgstoreafeb85c3283721af546859d62a1868a0Shape" mask="url(#svgstoreafeb85c3283721af546859d62a1868a0mask-2)" fill="#fff" d="M46.7 69.3c0 .7 26.5 48.8 26.5 48.8s26.6-48 26.6-48.8c0-4.8-.1-28.3-.1-28.3l-26.5-25.6-26.6 25.6s.1 23.5.1 28.3zm21.2 29.2l-11.3-21.5 7.7-3.3 9 4.9 8.8-5.1 7.6 3.2-10.8 21.5-11 .3z"/></g></symbol><symbol viewBox="0 0 148 148" id="feature2"><title>Icon 2</title><desc>Created with Sketch.</desc><g id="svgstorebd252375b5d43608f05b92a4a65600ecIcon-2" transform="translate(-1 -1)" fill="none" fill-rule="evenodd"><rect id="svgstorebd252375b5d43608f05b92a4a65600ecRectangle-16" fill="#3788FF" transform="rotate(-315 75 75)" x="21.97" y="21.97" width="106.061" height="106.061" rx="4"/><path d="M75.672 82.543c3.795 0 6.872-3.076 6.872-6.872 0-3.795-3.076-6.872-6.872-6.872-3.795 0-6.872 3.076-6.872 6.872 0 3.795 3.076 6.872 6.872 6.872zm-25.116-40.543l7.832 7.834 4.129-4.129 1.845 10.25 1.847 10.252-10.254-1.846-10.248-1.844 4.128-4.129-7.834-7.833 8.555-8.556zm49.887 67l-7.834-7.832-4.128 4.127-1.843-10.251-1.848-10.25 10.254 1.846 10.249 1.845-4.129 4.126 7.835 7.836-8.557 8.555zm-58.442-8.555l7.834-7.836-4.128-4.126 10.248-1.845 10.252-1.846-1.845 10.25-1.845 10.251-4.129-4.127-7.832 7.83-8.555-8.553zm66.999-49.89l-7.832 7.833 4.129 4.129-10.252 1.845-10.25 1.845 1.845-10.252 1.843-10.25 4.129 4.129 7.833-7.835 8.555 8.556z" id="svgstorebd252375b5d43608f05b92a4a65600ecShape" fill="#fff"/></g></symbol><symbol viewBox="0 0 148 148" id="feature3"><title>Icon 3</title><desc>Created with Sketch.</desc><g id="svgstoreb86e4f6c0842ebb88df4093b99541824Icon-3" transform="translate(-1 -1)" fill="none" fill-rule="evenodd"><rect id="svgstoreb86e4f6c0842ebb88df4093b99541824Rectangle-16" fill="#3788FF" transform="rotate(-315 75 75)" x="21.97" y="21.97" width="106.061" height="106.061" rx="4"/><path d="M69.663 81.495c1.708-.544 3.527-.84 5.413-.84 1.923 0 3.773.314 5.512.875l-.05-25.84h9.362l-14.044-15.604-15.604 15.604h9.363l.048 25.804zm23.139-24.245l6.695 6.544-17.7 18.181c3.482 1.412 6.414 3.888 8.411 7.022l17.102-17.569 6.696 6.544.86-20.722h-22.065zm-24.448 24.725l-17.7-18.181 6.696-6.544h-22.065l.861 20.722 6.696-6.544 17.102 17.569c1.996-3.135 4.928-5.61 8.409-7.022zm6.412 29.114c6.861 0 12.423-5.562 12.423-12.423s-5.562-12.423-12.423-12.423-12.423 5.562-12.423 12.423 5.562 12.423 12.423 12.423z" id="svgstoreb86e4f6c0842ebb88df4093b99541824Shape" fill="#fff"/></g></symbol><symbol viewBox="0 0 117 50" id="logo"><title>Logo</title><desc>Created with Sketch.</desc><g id="svgstore46cf7ac42ac6a1ded4f355f66645fd1bLogo"><path id="svgstore46cf7ac42ac6a1ded4f355f66645fd1bFill-12" d="M111.1 21.6v-10.4c.3-.2.5-.4.8-.6.6-.4 1.4-.9 1.8-1.1.6-.2 2.1-.4 3.1-.6v-2.1c-.5.1-2.9.3-3.8.7-.7.2-1.5.8-2.3 1.3-.3.2-.5.3-.7.5-.3-.2-.6-.4-.9-.6-.7-.5-1.4-1-2-1.2-.9-.3-3.4-.6-3.8-.7v2.2c1.1.1 2.6.4 3.1.6.3.1.9.6 1.4.9.4.3.8.6 1.2.8v10.3h-2v2.2h1.9v10.3c-.4.2-.8.5-1.2.8-.5.4-1.1.8-1.4.9-.5.2-2 .4-3.1.6v2.2c.5-.1 2.9-.4 3.8-.7.6-.2 1.3-.7 2-1.2.3-.2.6-.4.9-.6.2.2.5.3.7.5.8.5 1.6 1.1 2.3 1.3 1 .3 3.4.6 3.8.7v-2.2c-1-.1-2.5-.4-3.1-.6-.4-.1-1.2-.7-1.8-1.1-.3-.2-.6-.4-.8-.6v-10.2h1.9v-2.2l-1.8-.1z"/><path id="svgstore46cf7ac42ac6a1ded4f355f66645fd1bFill-1" fill="#3788FF" d="M64.1 30.6c1.7 0 2.9 1.3 2.9 2.9 0 1.6-1.2 2.8-2.9 2.9v13.1h33.8v-49.4h-33.8s0 30.5 0 30.5zm8 1.6c0 1.4.8 2.3 2.1 2.3.8 0 1.5-.2 2.1-.6v1.8c-.5.3-1.2.6-2.4.6-2.2 0-3.7-1.5-3.7-3.7v-23.3h2c-.1 0-.1 22.9-.1 22.9zm20.7 4c0 5.5-3.3 8.8-7.9 8.8-2.6 0-4.3-.6-5.9-1.6v-2.1c1.6 1.2 3.2 1.9 5.9 1.9 3.4 0 5.9-2.4 5.9-7v-2.9c-.9 1.6-2.9 3-5.9 3-4 0-6.8-2.7-6.8-7v-11h2v10.7c0 3.5 2.1 5.5 5.2 5.5 3.2 0 5.5-2.6 5.5-5.5v-10.8h2v18z"/><path id="svgstore46cf7ac42ac6a1ded4f355f66645fd1bFill-6" d="M43.8 29.5c0 2.2 1.2 3.2 2.7 3.2 1.2 0 2-.3 3-1v3.5c-1.2.7-2.2 1-3.7 1-3.3 0-6-2.1-5.9-6.4v-8.6h-4.1v-3.4h4.1v-6.5h4v6.5h5.6v3.4h-5.6l-.1 8.3"/><path id="svgstore46cf7ac42ac6a1ded4f355f66645fd1bFill-7" d="M55.6 29.5c0 2.2 1.2 3.2 2.7 3.2 1.2 0 2-.3 3-1 0 0-.4.7-.4 1.8s.4 1.7.4 1.7c-1.2.7-2.2 1-3.7 1-3.3 0-6-2.1-5.9-6.4v-8.6h-4.1v-3.4h4.1v-6.5h4v6.5h4.3v3.4h-4.3l-.1 8.3"/><path id="svgstore46cf7ac42ac6a1ded4f355f66645fd1bFill-5" d="M35.7 26.8c0 5.7-4.1 9.4-9.4 9.4-5.4 0-9.5-3.7-9.5-9.4s4.1-9.4 9.5-9.4c5.3 0 9.4 3.7 9.4 9.4zm-14.8 0c0 3.7 2.3 5.9 5.4 5.9 3.1 0 5.4-2.2 5.4-5.9 0-3.8-2.3-5.9-5.4-5.9-3.2 0-5.4 2.2-5.4 5.9z"/><path id="svgstore46cf7ac42ac6a1ded4f355f66645fd1bFill-4" d="M14.6 27.4c0 5.5-3.3 8.8-8.8 8.8-2.4 0-4-.5-5.7-1.2v-4.1c1.5.9 3.4 1.6 5.8 1.6 2.9 0 4.5-1.8 4.5-5v-14.6c-1.4 0-2.5.2-3.5.5 0 .3.1.6.1.9 0 1.6-1.2 2.9-3 2.9-1.7 0-3-1.2-3-3 0-1.2.5-2.3 2.1-3.3 2.8-1.4 6.7-1.8 11.5-1.6v18.1z"/></g></symbol><symbol viewBox="0 0 69 40" id="marker1"><title>1</title><desc>Created with Sketch.</desc><g id="svgstore61f1f649086221be1e56351bd12e9b0a1" fill="none" fill-rule="evenodd"><path d="M28 20h38.118" id="marker__line" stroke="#ff0000" stroke-width="4" stroke-linecap="square"/><path d="M22.121.908c-1.172-1.172-3.074-1.169-4.243 0l-16.971 16.971c-1.172 1.172-1.169 3.074 0 4.243l16.971 16.971c1.172 1.172 3.074 1.169 4.243 0l16.971-16.971c1.172-1.172 1.169-3.074 0-4.243l-16.971-16.971zm-1.127 24.46c0 .315-.002.614-.006.897-.004.283-.026.539-.065.767l2.03-.094v1.062h-6.16v-.802c.417-.016.761-.09 1.033-.224.271-.134.486-.319.643-.555.157-.236.267-.519.33-.85.063-.33.094-.704.094-1.121l-.024-11.411h-.047l-2.903 1.876-.484-.708 4.72-3.516h.814l.024 14.679z" id="svgstore61f1f649086221be1e56351bd12e9b0aRectangle-20" fill="#3788FF"/></g></symbol></svg>