<svg xmlns="http://www.w3.org/2000/svg"><defs><filter id="svgstoreafeb85c3283721af546859d62a1868a0Adobe_OpacityMaskFilter" filterUnits="userSpaceOnUse" x="46.6" y="15.4" width="53.2" height="102.7"/></defs><symbol viewBox="0 0 31 31" id="facebook"><title>Facebook</title><desc>Created with Sketch.</desc><path d="M25.834 0h-20.666c-2.841 0-5.167 2.325-5.167 5.167v20.665c0 2.844 2.325 5.167 5.167 5.167h20.666c2.842 0 5.166-2.323 5.166-5.167v-20.665c0-2.842-2.324-5.167-5.166-5.167zm.522 15.5h-5.043v13.563h-5.813v-13.563h-2.801v-4.437h2.801v-2.882c0-3.916 1.689-6.244 6.293-6.244h5.305v4.8h-4.333c-1.286-.002-1.445.67-1.445 1.923l-.007 2.403h5.813l-.769 4.437z" id="svgstore5c1be9c96fdd70d06f281996a9fe1f79Facebook" fill="#fff" fill-rule="evenodd"/></symbol><symbol viewBox="0 0 148 148" id="feature1"><title>Icon 1</title><desc>Created with Sketch.</desc><g id="svgstoreafeb85c3283721af546859d62a1868a0Icon-1" transform="translate(1 1)"><path id="svgstoreafeb85c3283721af546859d62a1868a0path-1_1_" fill="#3788FF" d="M75.8.8c-1.6-1.6-4.1-1.6-5.7 0l-69.3 69.4c-1.6 1.6-1.6 4.1 0 5.7l69.3 69.3c1.6 1.6 4.1 1.6 5.7 0l69.3-69.3c1.6-1.6 1.6-4.1 0-5.7l-69.3-69.4z"/><mask maskUnits="userSpaceOnUse" x="46.6" y="15.4" width="53.2" height="102.7" id="svgstoreafeb85c3283721af546859d62a1868a0mask-2"><path id="svgstoreafeb85c3283721af546859d62a1868a0path-1" fill="#fff" d="M75.8.8c-1.6-1.6-4.1-1.6-5.7 0l-69.3 69.4c-1.6 1.6-1.6 4.1 0 5.7l69.3 69.3c1.6 1.6 4.1 1.6 5.7 0l69.3-69.3c1.6-1.6 1.6-4.1 0-5.7l-69.3-69.4z" filter="url(#svgstoreafeb85c3283721af546859d62a1868a0Adobe_OpacityMaskFilter)"/></mask><path id="svgstoreafeb85c3283721af546859d62a1868a0Shape" mask="url(#svgstoreafeb85c3283721af546859d62a1868a0mask-2)" fill="#fff" d="M46.7 69.3c0 .7 26.5 48.8 26.5 48.8s26.6-48 26.6-48.8c0-4.8-.1-28.3-.1-28.3l-26.5-25.6-26.6 25.6s.1 23.5.1 28.3zm21.2 29.2l-11.3-21.5 7.7-3.3 9 4.9 8.8-5.1 7.6 3.2-10.8 21.5-11 .3z"/></g></symbol><symbol viewBox="0 0 148 148" id="feature2"><title>Icon 2</title><desc>Created with Sketch.</desc><g id="svgstorebd252375b5d43608f05b92a4a65600ecIcon-2" transform="translate(-1 -1)" fill="none" fill-rule="evenodd"><rect id="svgstorebd252375b5d43608f05b92a4a65600ecRectangle-16" fill="#3788FF" transform="rotate(-315 75 75)" x="21.97" y="21.97" width="106.061" height="106.061" rx="4"/><path d="M75.672 82.543c3.795 0 6.872-3.076 6.872-6.872 0-3.795-3.076-6.872-6.872-6.872-3.795 0-6.872 3.076-6.872 6.872 0 3.795 3.076 6.872 6.872 6.872zm-25.116-40.543l7.832 7.834 4.129-4.129 1.845 10.25 1.847 10.252-10.254-1.846-10.248-1.844 4.128-4.129-7.834-7.833 8.555-8.556zm49.887 67l-7.834-7.832-4.128 4.127-1.843-10.251-1.848-10.25 10.254 1.846 10.249 1.845-4.129 4.126 7.835 7.836-8.557 8.555zm-58.442-8.555l7.834-7.836-4.128-4.126 10.248-1.845 10.252-1.846-1.845 10.25-1.845 10.251-4.129-4.127-7.832 7.83-8.555-8.553zm66.999-49.89l-7.832 7.833 4.129 4.129-10.252 1.845-10.25 1.845 1.845-10.252 1.843-10.25 4.129 4.129 7.833-7.835 8.555 8.556z" id="svgstorebd252375b5d43608f05b92a4a65600ecShape" fill="#fff"/></g></symbol><symbol viewBox="0 0 148 148" id="feature3"><title>Icon 3</title><desc>Created with Sketch.</desc><g id="svgstoreb86e4f6c0842ebb88df4093b99541824Icon-3" transform="translate(-1 -1)" fill="none" fill-rule="evenodd"><rect id="svgstoreb86e4f6c0842ebb88df4093b99541824Rectangle-16" fill="#3788FF" transform="rotate(-315 75 75)" x="21.97" y="21.97" width="106.061" height="106.061" rx="4"/><path d="M69.663 81.495c1.708-.544 3.527-.84 5.413-.84 1.923 0 3.773.314 5.512.875l-.05-25.84h9.362l-14.044-15.604-15.604 15.604h9.363l.048 25.804zm23.139-24.245l6.695 6.544-17.7 18.181c3.482 1.412 6.414 3.888 8.411 7.022l17.102-17.569 6.696 6.544.86-20.722h-22.065zm-24.448 24.725l-17.7-18.181 6.696-6.544h-22.065l.861 20.722 6.696-6.544 17.102 17.569c1.996-3.135 4.928-5.61 8.409-7.022zm6.412 29.114c6.861 0 12.423-5.562 12.423-12.423s-5.562-12.423-12.423-12.423-12.423 5.562-12.423 12.423 5.562 12.423 12.423 12.423z" id="svgstoreb86e4f6c0842ebb88df4093b99541824Shape" fill="#fff"/></g></symbol><symbol viewBox="0 0 31 31" id="instagram"><title>Instagram</title><desc>Created with Sketch.</desc><path d="M25.854 0h-20.707c-2.831 0-5.147 2.316-5.147 5.147v20.707c0 2.831 2.316 5.147 5.147 5.147h20.707c2.831 0 5.147-2.316 5.147-5.147v-20.707c0-2.831-2.316-5.147-5.147-5.147zm-15.93 13.563h11.153c.211.607.326 1.259.326 1.938 0 3.255-2.649 5.904-5.904 5.904s-5.904-2.649-5.904-5.904c0-.678.115-1.33.327-1.938zm17.201.002v11.623c0 1.066-.872 1.938-1.938 1.938h-19.375c-1.066 0-1.938-.872-1.938-1.938v-11.625h3.03c-.14.624-.215 1.272-.215 1.938 0 4.857 3.952 8.81 8.81 8.81 4.858 0 8.81-3.952 8.81-8.81 0-.666-.075-1.314-.215-1.938l3.03.002zm0-6.783c0 .533-.436.969-.969.969h-1.938c-.533 0-.969-.436-.969-.969v-1.938c0-.533.436-.969.969-.969h1.938c.533 0 .969.436.969.969v1.938z" id="svgstore89ee5ecd8bb0f1754926ff8864528f6aInstagram" fill="#fff" fill-rule="evenodd"/></symbol><symbol viewBox="0 0 117 50" id="logo"><title>Logo</title><desc>Created with Sketch.</desc><g id="svgstore46cf7ac42ac6a1ded4f355f66645fd1bLogo"><path id="svgstore46cf7ac42ac6a1ded4f355f66645fd1bFill-12" d="M111.1 21.6v-10.4c.3-.2.5-.4.8-.6.6-.4 1.4-.9 1.8-1.1.6-.2 2.1-.4 3.1-.6v-2.1c-.5.1-2.9.3-3.8.7-.7.2-1.5.8-2.3 1.3-.3.2-.5.3-.7.5-.3-.2-.6-.4-.9-.6-.7-.5-1.4-1-2-1.2-.9-.3-3.4-.6-3.8-.7v2.2c1.1.1 2.6.4 3.1.6.3.1.9.6 1.4.9.4.3.8.6 1.2.8v10.3h-2v2.2h1.9v10.3c-.4.2-.8.5-1.2.8-.5.4-1.1.8-1.4.9-.5.2-2 .4-3.1.6v2.2c.5-.1 2.9-.4 3.8-.7.6-.2 1.3-.7 2-1.2.3-.2.6-.4.9-.6.2.2.5.3.7.5.8.5 1.6 1.1 2.3 1.3 1 .3 3.4.6 3.8.7v-2.2c-1-.1-2.5-.4-3.1-.6-.4-.1-1.2-.7-1.8-1.1-.3-.2-.6-.4-.8-.6v-10.2h1.9v-2.2l-1.8-.1z"/><path id="logosel" fill="#3788FF" d="M64.1 30.6c1.7 0 2.9 1.3 2.9 2.9 0 1.6-1.2 2.8-2.9 2.9v13.1h33.8v-49.4h-33.8s0 30.5 0 30.5zm8 1.6c0 1.4.8 2.3 2.1 2.3.8 0 1.5-.2 2.1-.6v1.8c-.5.3-1.2.6-2.4.6-2.2 0-3.7-1.5-3.7-3.7v-23.3h2c-.1 0-.1 22.9-.1 22.9zm20.7 4c0 5.5-3.3 8.8-7.9 8.8-2.6 0-4.3-.6-5.9-1.6v-2.1c1.6 1.2 3.2 1.9 5.9 1.9 3.4 0 5.9-2.4 5.9-7v-2.9c-.9 1.6-2.9 3-5.9 3-4 0-6.8-2.7-6.8-7v-11h2v10.7c0 3.5 2.1 5.5 5.2 5.5 3.2 0 5.5-2.6 5.5-5.5v-10.8h2v18z"/><path id="svgstore46cf7ac42ac6a1ded4f355f66645fd1bFill-6" d="M43.8 29.5c0 2.2 1.2 3.2 2.7 3.2 1.2 0 2-.3 3-1v3.5c-1.2.7-2.2 1-3.7 1-3.3 0-6-2.1-5.9-6.4v-8.6h-4.1v-3.4h4.1v-6.5h4v6.5h5.6v3.4h-5.6l-.1 8.3"/><path id="svgstore46cf7ac42ac6a1ded4f355f66645fd1bFill-7" d="M55.6 29.5c0 2.2 1.2 3.2 2.7 3.2 1.2 0 2-.3 3-1 0 0-.4.7-.4 1.8s.4 1.7.4 1.7c-1.2.7-2.2 1-3.7 1-3.3 0-6-2.1-5.9-6.4v-8.6h-4.1v-3.4h4.1v-6.5h4v6.5h4.3v3.4h-4.3l-.1 8.3"/><path id="svgstore46cf7ac42ac6a1ded4f355f66645fd1bFill-5" d="M35.7 26.8c0 5.7-4.1 9.4-9.4 9.4-5.4 0-9.5-3.7-9.5-9.4s4.1-9.4 9.5-9.4c5.3 0 9.4 3.7 9.4 9.4zm-14.8 0c0 3.7 2.3 5.9 5.4 5.9 3.1 0 5.4-2.2 5.4-5.9 0-3.8-2.3-5.9-5.4-5.9-3.2 0-5.4 2.2-5.4 5.9z"/><path id="svgstore46cf7ac42ac6a1ded4f355f66645fd1bFill-4" d="M14.6 27.4c0 5.5-3.3 8.8-8.8 8.8-2.4 0-4-.5-5.7-1.2v-4.1c1.5.9 3.4 1.6 5.8 1.6 2.9 0 4.5-1.8 4.5-5v-14.6c-1.4 0-2.5.2-3.5.5 0 .3.1.6.1.9 0 1.6-1.2 2.9-3 2.9-1.7 0-3-1.2-3-3 0-1.2.5-2.3 2.1-3.3 2.8-1.4 6.7-1.8 11.5-1.6v18.1z"/></g></symbol><symbol viewBox="0 0 35 35" id="marker"><title>Rectangle 21</title><desc>Created with Sketch.</desc><rect id="svgstore280e52b9096d768eb5ecf0f8cb79fee2Rectangle-21" transform="rotate(45.009)" x="4.857" y="4.857" width="24.286" height="24.286" rx="2.4" fill="#3788FF" fill-rule="evenodd"/></symbol><symbol viewBox="0 0 61 40" id="marker1"><title>marker1</title><desc>Created with Sketch.</desc><g id="svgstorecd5ccb2862d952508fb5e65b86c0e2ce1" fill="none" fill-rule="evenodd"><path d="M28 20h33" id="svgstorecd5ccb2862d952508fb5e65b86c0e2ceLine" stroke="#3788FF" stroke-width="4"/><path d="M22.121.908c-1.172-1.172-3.074-1.169-4.243 0l-16.971 16.971c-1.172 1.172-1.169 3.074 0 4.243l16.971 16.971c1.172 1.172 3.074 1.169 4.243 0l16.971-16.971c1.172-1.172 1.169-3.074 0-4.243l-16.971-16.971z" id="svgstorecd5ccb2862d952508fb5e65b86c0e2ceRectangle-20" fill="#3788FF"/><path d="M20.994 25.368c0 .315-.002.614-.006.897-.004.283-.026.539-.065.767l2.03-.094v1.062h-6.16v-.802c.417-.016.761-.09 1.033-.224.271-.134.486-.319.643-.555.157-.236.267-.519.33-.85.063-.33.094-.704.094-1.121l-.024-11.411h-.047l-2.903 1.876-.484-.708 4.72-3.516h.814l.024 14.679h.001z" id="svgstorecd5ccb2862d952508fb5e65b86c0e2ceRectangle-20-path" fill="#fff"/></g></symbol><symbol viewBox="0 0 40 61" id="marker2"><title>marker2</title><desc>Created with Sketch.</desc><g id="svgstore57aba69fab037af27b2469f8c7e4358f2" fill="none" fill-rule="evenodd"><path d="M20 28v-28" id="svgstore57aba69fab037af27b2469f8c7e4358fLine-2" stroke="#3788FF" stroke-width="4"/><path d="M22.121 21.908c-1.172-1.172-3.074-1.169-4.243 0l-16.971 16.971c-1.172 1.172-1.169 3.074 0 4.243l16.971 16.971c1.172 1.172 3.074 1.169 4.243 0l16.971-16.971c1.172-1.172 1.169-3.074 0-4.243l-16.971-16.971z" id="svgstore57aba69fab037af27b2469f8c7e4358fRectangle-21" fill="#3788FF"/><path d="M17.068 34.344c.157.173.269.352.336.537.067.185.1.368.1.549 0 .102-.02.22-.059.354-.039.134-.106.258-.201.372-.094.114-.216.21-.366.289-.149.079-.334.114-.555.106-.362-.016-.637-.151-.826-.407-.189-.256-.283-.564-.283-.926 0-.338.106-.714.319-1.127.212-.413.531-.797.956-1.151.425-.354.952-.651 1.581-.891s1.361-.36 2.195-.36c.637 0 1.261.075 1.87.224.61.149 1.152.395 1.628.738.476.342.857.795 1.145 1.357.287.562.431 1.253.431 2.071 0 .409-.087.846-.26 1.31-.173.464-.448.964-.826 1.499-.378.535-.867 1.107-1.469 1.717-.602.61-1.331 1.269-2.189 1.977-.551.448-1.054.889-1.51 1.322-.456.433-.854.844-1.192 1.233-.338.389-.612.755-.82 1.097-.208.342-.34.655-.395.938l4.283.118c.59.016 1.131.026 1.623.03s.916-.041 1.274-.136c.358-.094.637-.262.838-.502.201-.24.301-.596.301-1.068h.732l-.153 3.387h-10.467c0-.85.136-1.605.407-2.266.271-.661.629-1.272 1.074-1.835.444-.562.952-1.103 1.522-1.623.57-.519 1.158-1.066 1.764-1.64 1.046-.999 1.803-1.927 2.272-2.785.468-.857.702-1.683.702-2.478 0-.448-.045-.895-.136-1.339-.09-.444-.25-.846-.478-1.204-.228-.358-.533-.647-.915-.867-.382-.22-.863-.33-1.446-.33-.33 0-.647.045-.95.136-.303.09-.578.212-.826.366-.248.153-.46.334-.637.543-.177.208-.309.431-.395.667l.001-.002z" id="svgstore57aba69fab037af27b2469f8c7e4358fRectangle-21-path" fill="#fff"/></g></symbol><symbol viewBox="0 0 62 40" id="marker3"><title>marker3</title><desc>Created with Sketch.</desc><g id="svgstore11e5869abed1e4e406c79b6d2b59e28f3" fill="none" fill-rule="evenodd"><path d="M.885 19.98h25.158" id="svgstore11e5869abed1e4e406c79b6d2b59e28fLine-2" stroke="#3788FF" stroke-width="4"/><path d="M44.121.908c-1.172-1.172-3.074-1.169-4.243 0l-16.971 16.971c-1.172 1.172-1.169 3.074 0 4.243l16.971 16.971c1.172 1.172 3.074 1.169 4.243 0l16.971-16.971c1.172-1.172 1.169-3.074 0-4.243l-16.971-16.971z" id="svgstore11e5869abed1e4e406c79b6d2b59e28fRectangle-21" fill="#3788FF"/><path d="M38.245 13.38c.142.157.242.321.301.49.059.169.089.336.089.502 0 .094-.02.205-.059.33-.039.126-.102.242-.189.348-.087.106-.201.197-.342.271-.142.075-.315.108-.519.1-.346-.016-.608-.144-.785-.384-.177-.24-.266-.529-.266-.867 0-.33.1-.698.301-1.103.201-.405.505-.785.915-1.139.409-.354.922-.649 1.54-.885s1.343-.354 2.177-.354c.645 0 1.261.077 1.847.23.586.153 1.103.397 1.552.732.448.334.806.767 1.074 1.298.267.531.401 1.178.401 1.941 0 .385-.067.769-.201 1.151s-.354.749-.661 1.103c-.307.354-.714.682-1.221.985-.507.303-1.131.568-1.87.797v.024c.763.079 1.449.244 2.059.496.61.252 1.127.576 1.552.974.425.397.751.859.979 1.387.228.527.342 1.101.342 1.723 0 .818-.169 1.532-.507 2.142-.338.61-.789 1.115-1.351 1.516-.562.401-1.211.702-1.947.903-.736.201-1.497.301-2.283.301-.873 0-1.63-.104-2.272-.313-.641-.208-1.172-.474-1.593-.797-.421-.323-.734-.679-.938-1.068-.205-.389-.307-.761-.307-1.115 0-.362.094-.671.283-.926.189-.256.464-.391.826-.407.22-.008.403.024.549.094.146.071.262.161.348.271.087.11.148.232.183.366.035.134.053.256.053.366 0 .165-.026.328-.077.49-.051.161-.112.321-.183.478.079.275.214.509.407.702.193.193.423.35.69.472.267.122.559.212.873.271.315.059.637.089.968.089.574 0 1.095-.079 1.564-.236.468-.157.867-.391 1.198-.702.33-.311.584-.694.761-1.151.177-.456.266-.983.266-1.581 0-.527-.057-1.042-.171-1.546-.114-.503-.33-.948-.649-1.333s-.757-.692-1.316-.92c-.559-.228-1.278-.334-2.159-.319-.267 0-.559.012-.873.035v-1.086h.991c.637 0 1.168-.116 1.593-.348.425-.232.767-.521 1.027-.867.26-.346.444-.718.555-1.115.11-.397.165-.761.165-1.092 0-.496-.045-.956-.136-1.381-.09-.425-.246-.791-.466-1.097-.22-.307-.513-.549-.879-.726-.366-.177-.824-.266-1.375-.266-.362 0-.702.053-1.021.159-.319.106-.602.244-.85.413-.248.169-.454.358-.62.566-.165.208-.279.411-.342.608h-.001z" id="svgstore11e5869abed1e4e406c79b6d2b59e28fRectangle-21-path" fill="#fff"/></g></symbol><symbol viewBox="0 0 61 40" id="marker4"><title>marker4</title><desc>Created with Sketch.</desc><g id="svgstore4f9debcd938cf672e075a0f5ae5569ed4" fill="none" fill-rule="evenodd"><path d="M61 20.074h-29" id="svgstore4f9debcd938cf672e075a0f5ae5569edLine" stroke="#3788FF" stroke-width="4"/><path d="M22.121.908c-1.172-1.172-3.074-1.169-4.243 0l-16.971 16.971c-1.172 1.172-1.169 3.074 0 4.243l16.971 16.971c1.172 1.172 3.074 1.169 4.243 0l16.971-16.971c1.172-1.172 1.169-3.074 0-4.243l-16.971-16.971z" id="svgstore4f9debcd938cf672e075a0f5ae5569edRectangle-20" fill="#3788FF"/><path d="M21.841 25.368c0 .33-.004.637-.012.92-.008.283-.035.547-.083.791l1.864-.071v.991h-6.089v-.802h.189c.409-.031.739-.124.991-.277.252-.153.448-.362.59-.625.142-.264.236-.576.283-.938.047-.362.071-.763.071-1.204v-.814h-7.351v-1.192l8.732-11.458h.814v11.198l2.443.024v1.428h-2.443v2.03l.001-.001z" id="svgstore4f9debcd938cf672e075a0f5ae5569edRectangle-20-path" fill="#fff"/><path d="M13.888 21.769l5.758.071v-7.705h-.047l-5.711 7.635v-.001z" id="svgstore4f9debcd938cf672e075a0f5ae5569edRectangle-20-path" fill="#3788FF"/></g></symbol><symbol viewBox="0 0 31 31" id="twitter"><title>Twitter</title><desc>Created with Sketch.</desc><path d="M25.834 0h-20.666c-2.842 0-5.167 2.325-5.167 5.167v20.665c0 2.844 2.325 5.167 5.167 5.167h20.666c2.842 0 5.166-2.323 5.166-5.167v-20.665c0-2.842-2.324-5.167-5.166-5.167zm-.463 10.348c.01.222.015.446.015.67 0 6.848-5.123 14.745-14.491 14.745-2.876 0-5.553-.858-7.807-2.329.398.048.804.073 1.215.073 2.386 0 4.582-.828 6.325-2.218-2.228-.042-4.109-1.54-4.758-3.599.311.061.63.093.958.093.464 0 .915-.064 1.342-.182-2.33-.477-4.085-2.571-4.085-5.081v-.065c.687.388 1.472.621 2.307.648-1.367-.929-2.266-2.516-2.266-4.314 0-.949.251-1.84.69-2.605 2.512 3.136 6.265 5.198 10.497 5.414-.087-.38-.132-.775-.132-1.181 0-2.862 2.28-5.182 5.093-5.182 1.465 0 2.789.63 3.718 1.636 1.161-.233 2.25-.664 3.234-1.257-.381 1.21-1.188 2.226-2.239 2.868 1.03-.125 2.012-.404 2.925-.816-.683 1.039-1.546 1.952-2.541 2.682l.001-.001z" id="svgstored39651b8a4e11591f973a4ca5654b274Twitter" fill="#fff" fill-rule="evenodd"/></symbol></svg>